<?xml version="1.0" standalone="no"?>
<!DOCTYPE svg PUBLIC "-//W3C//DTD SVG 1.1//EN" "http://www.w3.org/Graphics/SVG/1.1/DTD/svg11.dtd" >
<svg>
<metadata>
Created by FontForge 20090914 at Sun Dec 13 20:01:13 2020
 By www-data
Copyright Patrick Lauke 2011
</metadata>
<defs>
<font id="Robotron-2084" horiz-adv-x="768" >
  <font-face 
    font-family="Robotron 2084"
    font-weight="400"
    font-stretch="normal"
    units-per-em="1024"
    panose-1="0 0 4 0 0 0 0 0 0 0"
    ascent="819"
    descent="-205"
    x-height="768"
    cap-height="768"
    bbox="0 0 768 896"
    underline-thickness="51"
    underline-position="126"
    unicode-range="U+0020-U+203A"
  />
<missing-glyph horiz-adv-x="718" 
d="M521 50l-226 314l-226 -314h452zM50 69l226 315l-226 314v-629v0zM540 69v629l-226 -314l226 -315v0zM295 403l226 315h-452l226 -315v0zM0 0v768h590v-768h-590z" />
    <glyph glyph-name=".notdef" horiz-adv-x="718" 
d="M521 50l-226 314l-226 -314h452zM50 69l226 315l-226 314v-629v0zM540 69v629l-226 -314l226 -315v0zM295 403l226 315h-452l226 -315v0zM0 0v768h590v-768h-590z" />
    <glyph glyph-name="space" unicode=" " horiz-adv-x="512" 
 />
    <glyph glyph-name="exclam" unicode="!" horiz-adv-x="384" 
d="M0 0v128h256v-128h-256zM0 256v512h256v-512h-256z" />
    <glyph glyph-name="quotedbl" unicode="&#x22;" horiz-adv-x="512" 
d="M0 512v256h128v-256h-128zM256 512v256h128v-256h-128z" />
    <glyph glyph-name="numbersign" unicode="#" 
d="M384 256v128h-128v-128h128zM128 0v128h-128v128h128v128h-128v128h128v128h128v-128h128v128h128v-128h128v-128h-128v-128h128v-128h-128v-128h-128v128h-128v-128h-128z" />
    <glyph glyph-name="dollar" unicode="$" 
d="M512 256v128h-128v-128h128zM256 512v128h-128v-128h128zM256 0v128h-256v128h256v128h-256v384h256v128h128v-128h256v-128h-256v-128h256v-384h-256v-128h-128z" />
    <glyph glyph-name="percent" unicode="%" 
d="M0 0v128h128v-128h-128zM128 128v128h128v-128h-128zM384 0v256h256v-256h-256zM256 256v128h128v-128h-128zM384 384v128h128v-128h-128zM0 384v256h256v-256h-256zM512 512v128h128v-128h-128z" />
    <glyph glyph-name="ampersand" unicode="&#x26;" horiz-adv-x="512" 
d="M128 128v128h-128v128h128v128h128v-128h128v-128h-128v-128h-128z" />
    <glyph glyph-name="quotesingle" unicode="'" horiz-adv-x="256" 
d="M0 512v256h128v-256h-128z" />
    <glyph glyph-name="parenleft" unicode="(" horiz-adv-x="512" 
d="M256 0v128h128v-128h-128zM128 128v128h128v-128h-128zM0 256v256h128v-256h-128zM128 512v128h128v-128h-128zM256 640v128h128v-128h-128z" />
    <glyph glyph-name="parenright" unicode=")" horiz-adv-x="512" 
d="M0 0v128h128v-128h-128zM128 128v128h128v-128h-128zM256 256v256h128v-256h-128zM128 512v128h128v-128h-128zM0 640v128h128v-128h-128z" />
    <glyph glyph-name="asterisk" unicode="*" 
d="M0 0v128h128v-128h-128zM512 0v128h128v-128h-128zM128 128v128h128v-128h-128zM384 128v128h128v-128h-128zM256 256v128h128v-128h-128zM128 384v128h128v-128h-128zM384 384v128h128v-128h-128zM0 512v128h128v-128h-128zM512 512v128h128v-128h-128z" />
    <glyph glyph-name="plus" unicode="+" 
d="M256 0v256h-256v128h256v256h128v-256h256v-128h-256v-256h-128z" />
    <glyph glyph-name="comma" unicode="," horiz-adv-x="384" 
d="M0 0v384h256v-256h-128v-128h-128z" />
    <glyph glyph-name="hyphen" unicode="-" 
d="M0 256v128h640v-128h-640z" />
    <glyph glyph-name="period" unicode="." horiz-adv-x="384" 
d="M0 0v256h256v-256h-256z" />
    <glyph glyph-name="slash" unicode="/" 
d="M0 0v128h128v-128h-128zM128 128v128h128v-128h-128zM256 256v128h128v-128h-128zM384 384v128h128v-128h-128zM512 512v128h128v-128h-128z" />
    <glyph glyph-name="zero" unicode="0" 
d="M512 128v512h-384v-512h384zM0 0v768h640v-768h-640z" />
    <glyph glyph-name="one" unicode="1" 
d="M128 0v128h256v512h-128v128h256v-640h128v-128h-512z" />
    <glyph glyph-name="two" unicode="2" 
d="M0 0v512h512v128h-384v128h512v-384h-512v-256h384v-128h-512z" />
    <glyph glyph-name="three" unicode="3" 
d="M0 0v128h512v256h-384v128h384v128h-384v128h512v-768h-640z" />
    <glyph glyph-name="four" unicode="4" 
d="M384 0v256h-384v512h128v-384h256v256h128v-256h128v-128h-128v-256h-128z" />
    <glyph glyph-name="five" unicode="5" 
d="M0 0v128h512v256h-512v384h512v-128h-384v-128h512v-512h-640z" />
    <glyph glyph-name="six" unicode="6" 
d="M512 128v256h-384v-256h384zM0 0v768h512v-128h-384v-128h512v-512h-640z" />
    <glyph glyph-name="seven" unicode="7" 
d="M0 0v128h128v-128h-128zM128 128v128h128v-128h-128zM256 256v128h128v-128h-128zM384 384v128h128v-128h-128zM512 512v128h-512v128h640v-256h-128z" />
    <glyph glyph-name="eight" unicode="8" 
d="M512 128v256h-384v-256h384zM512 512v128h-384v-128h384zM0 0v768h640v-768h-640z" />
    <glyph glyph-name="nine" unicode="9" 
d="M512 512v128h-384v-128h384zM128 0v128h384v256h-512v384h640v-768h-512z" />
    <glyph glyph-name="colon" unicode=":" horiz-adv-x="384" 
d="M0 0v256h256v-256h-256zM0 384v256h256v-256h-256z" />
    <glyph glyph-name="semicolon" unicode=";" horiz-adv-x="384" 
d="M0 0v256h256v-128h-128v-128h-128zM0 384v256h256v-256h-256z" />
    <glyph glyph-name="less" unicode="&#x3c;" horiz-adv-x="512" 
d="M256 0v128h128v-128h-128zM128 128v128h128v-128h-128zM0 256v128h128v-128h-128zM128 384v128h128v-128h-128zM256 512v128h128v-128h-128z" />
    <glyph glyph-name="equal" unicode="=" 
d="M0 128v128h640v-128h-640zM0 384v128h640v-128h-640z" />
    <glyph glyph-name="greater" unicode="&#x3e;" horiz-adv-x="512" 
d="M0 0v128h128v-128h-128zM128 128v128h128v-128h-128zM256 256v128h128v-128h-128zM128 384v128h128v-128h-128zM0 512v128h128v-128h-128z" />
    <glyph glyph-name="question" unicode="?" horiz-adv-x="640" 
d="M128 0v128h256v-128h-256zM0 512v128h128v-128h-128zM128 256v128h128v128h128v128h128v-256h-128v-128h-256zM128 640v128h256v-128h-256z" />
    <glyph glyph-name="at" unicode="@" horiz-adv-x="512" 
d="M128 0v128h-128v128h384v-128h-128v-128h-128zM0 384v256h128v-128h128v128h128v-256h-384zM128 640v128h128v-128h-128z" />
    <glyph glyph-name="A" unicode="A" 
d="M384 512v128h-256v-128h256zM0 0v768h640v-768h-256v384h-256v-384h-128z" />
    <glyph glyph-name="B" unicode="B" 
d="M512 128v256h-256v-256h256zM384 512v128h-256v-128h256zM0 0v768h512v-256h128v-512h-640z" />
    <glyph glyph-name="C" unicode="C" 
d="M0 0v768h640v-128h-384v-512h384v-128h-640z" />
    <glyph glyph-name="D" unicode="D" 
d="M512 128v512h128v-512h-128zM0 0v768h512v-128h-256v-512h256v-128h-512z" />
    <glyph glyph-name="E" unicode="E" 
d="M0 0v768h640v-128h-512v-128h512v-128h-384v-256h384v-128h-640z" />
    <glyph glyph-name="F" unicode="F" 
d="M0 0v768h640v-128h-512v-128h512v-128h-384v-384h-256z" />
    <glyph glyph-name="G" unicode="G" 
d="M0 0v768h640v-256h-256v128h-128v-512h256v128h-128v128h256v-384h-640z" />
    <glyph glyph-name="H" unicode="H" 
d="M0 0v768h256v-256h256v256h128v-768h-128v384h-256v-384h-256z" />
    <glyph glyph-name="I" unicode="I" horiz-adv-x="640" 
d="M128 0v768h256v-768h-256z" />
    <glyph glyph-name="J" unicode="J" 
d="M0 0v256h256v-128h256v640h128v-768h-640z" />
    <glyph glyph-name="K" unicode="K" 
d="M512 0v128h128v-128h-128zM384 128v128h128v-128h-128zM384 512v128h128v-128h-128zM0 0v768h256v-256h128v-256h-128v-256h-256zM512 640v128h128v-128h-128z" />
    <glyph glyph-name="L" unicode="L" 
d="M0 0v768h128v-512h512v-256h-640z" />
    <glyph glyph-name="M" unicode="M" 
d="M0 0v768h640v-768h-128v640h-128v-256h-128v256h-128v-640h-128z" />
    <glyph glyph-name="N" unicode="N" 
d="M0 0v768h640v-768h-128v640h-384v-128h128v-512h-256z" />
    <glyph glyph-name="O" unicode="O" 
d="M512 128v384h-128v128h-256v-512h384zM0 0v768h640v-768h-640z" />
    <glyph glyph-name="P" unicode="P" 
d="M512 512v128h-384v-128h384zM0 0v768h640v-384h-384v-384h-256z" />
    <glyph glyph-name="Q" unicode="Q" 
d="M512 0v128h128v-128h-128zM384 128v128h128v-128h-128zM0 0v768h640v-512h-128v384h-256v-512h128v-128h-384z" />
    <glyph glyph-name="R" unicode="R" 
d="M384 512v128h-256v-128h256zM0 0v768h512v-256h128v-512h-128v384h-256v-384h-256z" />
    <glyph glyph-name="S" unicode="S" 
d="M0 0v256h256v-128h256v256h-512v384h640v-128h-512v-128h512v-512h-640z" />
    <glyph glyph-name="T" unicode="T" 
d="M256 0v640h-256v128h640v-128h-256v-128h128v-512h-256z" />
    <glyph glyph-name="U" unicode="U" 
d="M0 0v768h128v-640h256v640h256v-768h-640z" />
    <glyph glyph-name="V" unicode="V" 
d="M256 0v128h128v-128h-128zM384 128v128h128v-128h-128zM128 128v128h-128v512h256v-640h-128zM512 256v512h128v-512h-128z" />
    <glyph glyph-name="W" unicode="W" 
d="M0 0v768h128v-640h128v256h128v-256h128v640h128v-768h-640z" />
    <glyph glyph-name="X" unicode="X" 
d="M0 0v128h128v-128h-128zM512 0v128h128v-128h-128zM128 128v128h128v-128h-128zM384 128v128h128v-128h-128zM256 256v256h128v-256h-128zM128 512v128h128v-128h-128zM384 512v128h128v-128h-128zM0 640v128h128v-128h-128zM512 640v128h128v-128h-128z" />
    <glyph glyph-name="Y" unicode="Y" 
d="M256 0v384h-256v384h256v-256h256v256h128v-384h-256v-384h-128z" />
    <glyph glyph-name="Z" unicode="Z" 
d="M0 0v256h128v128h128v-128h384v-256h-640zM256 384v128h128v-128h-128zM384 512v128h-384v128h640v-128h-128v-128h-128z" />
    <glyph glyph-name="bracketleft" unicode="[" horiz-adv-x="512" 
d="M0 0v768h384v-128h-256v-512h256v-128h-384z" />
    <glyph glyph-name="backslash" unicode="\" 
d="M512 0v128h128v-128h-128zM384 128v128h128v-128h-128zM256 256v128h128v-128h-128zM128 384v128h128v-128h-128zM0 512v128h128v-128h-128z" />
    <glyph glyph-name="bracketright" unicode="]" horiz-adv-x="512" 
d="M0 0v128h256v512h-256v128h384v-768h-384z" />
    <glyph glyph-name="asciicircum" unicode="^" horiz-adv-x="512" 
d="M0 512v128h128v-128h-128zM256 512v128h128v-128h-128zM128 640v128h128v-128h-128z" />
    <glyph glyph-name="underscore" unicode="_" 
d="M0 0v128h640v-128h-640z" />
    <glyph glyph-name="grave" unicode="`" horiz-adv-x="384" 
d="M128 512v128h128v-128h-128zM0 640v128h128v-128h-128z" />
    <glyph glyph-name="a" unicode="a" 
d="M384 512v128h-256v-128h256zM0 0v768h640v-768h-256v384h-256v-384h-128z" />
    <glyph glyph-name="b" unicode="b" 
d="M512 128v256h-256v-256h256zM384 512v128h-256v-128h256zM0 0v768h512v-256h128v-512h-640z" />
    <glyph glyph-name="c" unicode="c" 
d="M0 0v768h640v-128h-384v-512h384v-128h-640z" />
    <glyph glyph-name="d" unicode="d" 
d="M512 128v512h128v-512h-128zM0 0v768h512v-128h-256v-512h256v-128h-512z" />
    <glyph glyph-name="e" unicode="e" 
d="M0 0v768h640v-128h-512v-128h512v-128h-384v-256h384v-128h-640z" />
    <glyph glyph-name="f" unicode="f" 
d="M0 0v768h640v-128h-512v-128h512v-128h-384v-384h-256z" />
    <glyph glyph-name="g" unicode="g" 
d="M0 0v768h640v-256h-256v128h-128v-512h256v128h-128v128h256v-384h-640z" />
    <glyph glyph-name="h" unicode="h" 
d="M0 0v768h256v-256h256v256h128v-768h-128v384h-256v-384h-256z" />
    <glyph glyph-name="i" unicode="i" horiz-adv-x="512" 
d="M128 0v768h256v-768h-256z" />
    <glyph glyph-name="j" unicode="j" 
d="M0 0v256h256v-128h256v640h128v-768h-640z" />
    <glyph glyph-name="k" unicode="k" 
d="M512 0v128h128v-128h-128zM384 128v128h128v-128h-128zM384 512v128h128v-128h-128zM0 0v768h256v-256h128v-256h-128v-256h-256zM512 640v128h128v-128h-128z" />
    <glyph glyph-name="l" unicode="l" 
d="M0 0v768h128v-512h512v-256h-640z" />
    <glyph glyph-name="m" unicode="m" 
d="M0 0v768h640v-768h-128v640h-128v-256h-128v256h-128v-640h-128z" />
    <glyph glyph-name="n" unicode="n" 
d="M0 0v768h640v-768h-128v640h-384v-128h128v-512h-256z" />
    <glyph glyph-name="o" unicode="o" 
d="M512 128v384h-128v128h-256v-512h384zM0 0v768h640v-768h-640z" />
    <glyph glyph-name="p" unicode="p" 
d="M512 512v128h-384v-128h384zM0 0v768h640v-384h-384v-384h-256z" />
    <glyph glyph-name="q" unicode="q" 
d="M512 0v128h128v-128h-128zM384 128v128h128v-128h-128zM0 0v768h640v-512h-128v384h-256v-512h128v-128h-384z" />
    <glyph glyph-name="r" unicode="r" 
d="M384 512v128h-256v-128h256zM0 0v768h512v-256h128v-512h-128v384h-256v-384h-256z" />
    <glyph glyph-name="s" unicode="s" 
d="M0 0v256h256v-128h256v256h-512v384h640v-128h-512v-128h512v-512h-640z" />
    <glyph glyph-name="t" unicode="t" 
d="M256 0v640h-256v128h640v-128h-256v-128h128v-512h-256z" />
    <glyph glyph-name="u" unicode="u" 
d="M0 0v768h128v-640h256v640h256v-768h-640z" />
    <glyph glyph-name="v" unicode="v" 
d="M256 0v128h128v-128h-128zM384 128v128h128v-128h-128zM128 128v128h-128v512h256v-640h-128zM512 256v512h128v-512h-128z" />
    <glyph glyph-name="w" unicode="w" 
d="M0 0v768h128v-640h128v256h128v-256h128v640h128v-768h-640z" />
    <glyph glyph-name="x" unicode="x" 
d="M0 0v128h128v-128h-128zM512 0v128h128v-128h-128zM128 128v128h128v-128h-128zM384 128v128h128v-128h-128zM256 256v256h128v-256h-128zM128 512v128h128v-128h-128zM384 512v128h128v-128h-128zM0 640v128h128v-128h-128zM512 640v128h128v-128h-128z" />
    <glyph glyph-name="y" unicode="y" 
d="M256 0v384h-256v384h256v-256h256v256h128v-384h-256v-384h-128z" />
    <glyph glyph-name="z" unicode="z" 
d="M0 0v256h128v128h128v-128h384v-256h-640zM256 384v128h128v-128h-128zM384 512v128h-384v128h640v-128h-128v-128h-128z" />
    <glyph glyph-name="braceleft" unicode="{" horiz-adv-x="512" 
d="M128 0v256h128v-128h128v-128h-256zM0 256v128h128v-128h-128zM128 384v256h256v-128h-128v-128h-128z" />
    <glyph glyph-name="bar" unicode="|" horiz-adv-x="256" 
d="M0 0v768h128v-768h-128z" />
    <glyph glyph-name="braceright" unicode="}" horiz-adv-x="512" 
d="M0 0v128h128v128h128v-256h-256zM256 256v128h128v-128h-128zM128 384v128h-128v128h256v-256h-128z" />
    <glyph glyph-name="asciitilde" unicode="~" 
d="M384 128v128h128v-128h-128zM0 256v128h128v-128h-128zM256 256v128h128v-128h-128zM512 256v128h128v-128h-128zM128 384v128h128v-128h-128z" />
    <glyph glyph-name="sterling" unicode="&#xa3;" 
d="M128 0v128h128v256h-128v128h128v256h384v-128h-256v-128h128v-128h-128v-256h256v-128h-512z" />
    <glyph glyph-name="guillemotleft" unicode="&#xab;" horiz-adv-x="896" 
d="M256 0v128h128v-128h-128zM640 0v128h128v-128h-128zM128 128v128h128v-128h-128zM512 128v128h128v-128h-128zM0 256v128h128v-128h-128zM384 256v128h128v-128h-128zM128 384v128h128v-128h-128zM512 384v128h128v-128h-128zM256 512v128h128v-128h-128zM640 512v128
h128v-128h-128z" />
    <glyph glyph-name="uni00AD" unicode="&#xad;" horiz-adv-x="640" 
d="M0 256v128h512v-128h-512z" />
    <glyph glyph-name="plusminus" unicode="&#xb1;" horiz-adv-x="640" 
d="M128 0v128h384v-128h-384zM256 256v128h-128v128h128v128h128v-128h128v-128h-128v-128h-128z" />
    <glyph glyph-name="periodcentered" unicode="&#xb7;" horiz-adv-x="384" 
d="M0 256v256h256v-256h-256z" />
    <glyph glyph-name="guillemotright" unicode="&#xbb;" horiz-adv-x="896" 
d="M0 0v128h128v-128h-128zM384 0v128h128v-128h-128zM128 128v128h128v-128h-128zM512 128v128h128v-128h-128zM256 256v128h128v-128h-128zM640 256v128h128v-128h-128zM128 384v128h128v-128h-128zM512 384v128h128v-128h-128zM0 512v128h128v-128h-128zM384 512v128h128
v-128h-128z" />
    <glyph glyph-name="multiply" unicode="&#xd7;" 
d="M0 0v128h128v-128h-128zM512 0v128h128v-128h-128zM128 128v128h128v-128h-128zM384 128v128h128v-128h-128zM256 256v128h128v-128h-128zM128 384v128h128v-128h-128zM384 384v128h128v-128h-128zM0 512v128h128v-128h-128zM512 512v128h128v-128h-128z" />
    <glyph glyph-name="divide" unicode="&#xf7;" 
d="M256 0v128h128v-128h-128zM0 256v128h640v-128h-640zM256 512v128h128v-128h-128z" />
    <glyph glyph-name="emdash" unicode="&#x2014;" 
d="M0 256v128h640v-128h-640z" />
    <glyph glyph-name="quoteleft" unicode="&#x2018;" horiz-adv-x="256" 
d="M0 512v256h128v-256h-128z" />
    <glyph glyph-name="quoteright" unicode="&#x2019;" horiz-adv-x="256" 
d="M0 512v256h128v-256h-128z" />
    <glyph glyph-name="quotesinglbase" unicode="&#x201a;" horiz-adv-x="256" 
d="M0 0v256h128v-256h-128z" />
    <glyph glyph-name="quotedblleft" unicode="&#x201c;" horiz-adv-x="512" 
d="M0 512v256h128v-256h-128zM256 512v256h128v-256h-128z" />
    <glyph glyph-name="quotedblright" unicode="&#x201d;" horiz-adv-x="512" 
d="M0 512v256h128v-256h-128zM256 512v256h128v-256h-128z" />
    <glyph glyph-name="quotedblbase" unicode="&#x201e;" horiz-adv-x="512" 
d="M0 0v256h128v-256h-128zM256 0v256h128v-256h-128z" />
    <glyph glyph-name="ellipsis" unicode="&#x2026;" 
d="M0 0v128h128v-128h-128zM256 0v128h128v-128h-128zM512 0v128h128v-128h-128z" />
    <glyph glyph-name="guilsinglleft" unicode="&#x2039;" horiz-adv-x="512" 
d="M256 0v128h128v-128h-128zM128 128v128h128v-128h-128zM0 256v128h128v-128h-128zM128 384v128h128v-128h-128zM256 512v128h128v-128h-128z" />
    <glyph glyph-name="guilsinglright" unicode="&#x203a;" horiz-adv-x="512" 
d="M0 0v128h128v-128h-128zM128 128v128h128v-128h-128zM256 256v128h128v-128h-128zM128 384v128h128v-128h-128zM0 512v128h128v-128h-128z" />
    <glyph glyph-name="glyph1" horiz-adv-x="128" 
 />
    <glyph glyph-name="glyph2" horiz-adv-x="128" 
 />
  </font>
</defs>
</svg>
